<?xml version="1.0" encoding="UTF-8" standalone="no"?>
<!DOCTYPE svg PUBLIC "-//W3C//DTD SVG 1.1//EN" "http://www.w3.org/Graphics/SVG/1.1/DTD/svg11.dtd">
<svg width="100%" height="100%" viewBox="0 0 512 512" version="1.1" xmlns="http://www.w3.org/2000/svg" xmlns:xlink="http://www.w3.org/1999/xlink" xml:space="preserve" xmlns:serif="http://www.serif.com/" style="fill-rule:evenodd;clip-rule:evenodd;stroke-linejoin:round;stroke-miterlimit:2;">
    <g transform="matrix(0.863399,0,0,1.29192,-328.269,-785.479)">
        <rect x="380.205" y="607.993" width="593.005" height="396.309" style="fill:rgb(0,128,0);"/>
    </g>
    <g transform="matrix(0.781252,0,0,0.78125,55.9998,55.9993)">
        <path d="M246.877,335.156L176.843,265.122L384.533,57.432C400.932,41.033 421.23,29.069 443.52,22.664L493.479,8.308C499.713,6.517 505.482,12.286 503.691,18.52L489.335,68.479C482.93,90.769 470.966,111.067 454.567,127.466L246.877,335.156Z" style="fill:rgb(205,210,223);fill-rule:nonzero;"/>
        <path d="M454.566,127.466C470.965,111.067 482.929,90.769 489.334,68.479L503.69,18.52C504.529,15.599 503.697,12.792 501.946,10.805L372.636,140.116L212.236,300.516L246.876,335.156L454.566,127.466Z" style="fill:rgb(187,198,212);fill-rule:nonzero;"/>
        <g transform="matrix(-0.7071,-0.7071,0.7071,-0.7071,-109.622,769.479)">
            <rect x="74.202" y="352.078" width="60.703" height="110.729" style="fill:rgb(255,148,0);"/>
        </g>
        <path d="M122.237,346.838L150.337,374.938L72.04,453.236L43.939,425.136L86.863,468.059L165.161,389.762L122.237,346.838Z" style="fill:rgb(255,122,0);fill-rule:nonzero;"/>
        <path d="M176.838,405.185L106.814,335.161C103.9,332.247 103.9,327.523 106.814,324.609L128.946,302.477L209.522,383.053L187.39,405.185C184.476,408.099 179.752,408.099 176.838,405.185Z" style="fill:rgb(255,233,47);fill-rule:nonzero;"/>
        <path d="M128.946,302.477L117.147,314.276L166.299,363.428C174.919,372.048 174.919,386.025 166.299,394.646L176.839,405.186C179.753,408.1 184.477,408.1 187.391,405.186L209.523,383.054L128.946,302.477Z" style="fill:rgb(255,216,47);fill-rule:nonzero;"/>
        <path d="M223.027,400.167L111.833,288.972C92.007,269.146 92.007,237.001 111.833,217.175C116.545,212.463 124.184,212.463 128.896,217.175L294.824,383.103C299.536,387.815 299.536,395.454 294.824,400.166C274.998,419.993 242.853,419.993 223.027,400.167Z" style="fill:rgb(255,198,0);fill-rule:nonzero;"/>
        <path d="M294.824,383.103L262.302,350.581C267.013,355.293 267.013,362.932 262.301,367.644C242.475,387.47 210.33,387.47 190.504,367.644L151.168,328.308L223.027,400.167C242.853,419.993 274.998,419.993 294.824,400.167C299.536,395.455 299.536,387.815 294.824,383.103Z" style="fill:rgb(244,175,0);fill-rule:nonzero;"/>
        <path d="M34.035,489.803L22.196,477.964C3.215,458.983 3.215,428.208 22.196,409.227C24.841,406.582 29.13,406.582 31.776,409.227L102.773,480.224C105.418,482.869 105.418,487.158 102.773,489.804C83.791,508.784 53.016,508.784 34.035,489.803Z" style="fill:rgb(255,233,47);fill-rule:nonzero;"/>
        <path d="M102.772,480.223L93.191,470.642C74.149,488.733 44.052,488.451 25.371,469.77L13.532,457.931C11.782,456.181 10.195,454.329 8.768,452.397C10.484,461.762 14.954,470.722 22.195,477.964L34.034,489.803C53.015,508.784 83.79,508.784 102.771,489.803C105.418,487.158 105.418,482.869 102.772,480.223Z" style="fill:rgb(255,216,47);fill-rule:nonzero;"/>
        <path d="M507.242,4.757C503.067,0.581 496.947,-0.998 491.273,0.631L441.314,14.987C417.784,21.748 396.197,34.473 378.885,51.784L223.204,207.994C220.084,211.113 220.084,216.171 223.204,219.29C226.323,222.409 231.381,222.409 234.5,219.29L390.18,63.08C405.583,47.677 424.79,36.356 445.725,30.341L495.684,15.985C495.784,15.955 495.834,15.941 495.946,16.053C496.057,16.164 496.043,16.215 496.014,16.315L481.658,66.274C475.643,87.209 464.322,106.416 448.919,121.819L246.877,323.861L223.532,300.516L378.284,145.764C381.404,142.645 381.404,137.587 378.284,134.468C375.165,131.349 370.107,131.349 366.988,134.468L212.237,289.22L188.139,265.122L234.5,219.29C237.62,216.171 226.324,222.409 223.204,219.29C220.085,216.171 226.323,204.875 223.204,207.994L176.843,253.826L134.544,211.527C130.757,207.739 125.721,205.654 120.364,205.654C115.008,205.655 109.972,207.74 106.185,211.528C95.088,222.625 88.976,237.38 88.976,253.074C88.976,268.768 95.088,283.523 106.185,294.62L115.846,304.281L100.984,319.143C95.061,325.066 95.061,334.703 100.984,340.626L109.069,348.711L45.813,411.967L37.425,403.579C31.671,397.824 22.306,397.824 16.549,403.579C-5.516,425.644 -5.516,461.547 16.549,483.612L28.388,495.451C39.42,506.483 53.912,512 68.404,512C82.896,512 97.388,506.483 108.421,495.45C114.176,489.695 114.175,480.33 108.42,474.575L100.032,466.186L150.39,415.827C153.51,412.708 142.214,418.946 139.094,415.827C135.975,412.708 142.213,401.412 139.094,404.531L88.736,454.89L57.108,423.262L120.364,360.006L151.992,391.634L139.094,404.531C135.974,407.65 135.974,412.707 139.094,415.827C142.213,418.947 147.271,418.947 150.39,415.827L163.288,402.929L171.373,411.014C174.334,413.975 178.225,415.456 182.115,415.456C186.005,415.456 189.895,413.975 192.856,411.014L207.718,396.152L217.379,405.813C228.476,416.91 243.231,423.022 258.925,423.022C274.619,423.022 289.374,416.91 300.471,405.813C308.29,397.995 308.29,385.273 300.471,377.454L258.172,335.155L460.214,133.113C477.526,115.801 490.25,94.214 497.011,70.684L511.367,20.725C512.999,15.051 511.418,8.932 507.242,4.757ZM39.683,484.155L27.844,472.316C12.294,456.766 12.013,431.641 26.999,415.744L40.16,428.905C40.162,428.907 40.163,428.909 40.165,428.91L83.089,471.834C83.091,471.836 83.093,471.837 83.094,471.839L96.254,485C80.357,499.986 55.233,499.704 39.683,484.155ZM182.114,399.165L168.941,385.992C168.939,385.99 168.938,385.988 168.936,385.986L126.012,343.062C126.01,343.06 126.008,343.059 126.007,343.057L112.834,329.884L127.142,315.575L196.423,384.856L182.114,399.165ZM290.371,391.635C290.371,392.724 289.947,393.748 289.176,394.519C281.096,402.599 270.353,407.049 258.926,407.049C247.499,407.049 236.756,402.599 228.676,394.519L117.481,283.324C109.401,275.244 104.951,264.501 104.951,253.074C104.951,241.647 109.401,230.904 117.481,222.823C118.251,222.053 119.276,221.629 120.364,221.629C121.453,221.629 122.478,222.053 123.248,222.823L289.176,388.751C289.946,389.521 290.371,390.546 290.371,391.635Z" style="fill-rule:nonzero;"/>
    </g>
</svg>